<?xml version="1.0" encoding="iso-8859-1"?>
<!-- Generator: Adobe Illustrator 19.0.0, SVG Export Plug-In . SVG Version: 6.00 Build 0)  -->
<svg version="1.1" id="Layer_1" xmlns="http://www.w3.org/2000/svg" xmlns:xlink="http://www.w3.org/1999/xlink" x="0px" y="0px"
	 viewBox="0 0 512 512" style="enable-background:new 0 0 512 512;" xml:space="preserve">
<path style="fill:#21D8DE;" d="M0,100.228V364.64c0,25.201,20.421,45.612,45.606,45.612h399.619V100.228H0z"/>
<path style="fill:#242D3C;" d="M45.606,319.052V8.987C20.421,8.987,0,29.421,0,54.606V364.64
	C0.008,339.437,20.421,319.052,45.606,319.052z"/>
<g>
	<path style="fill:#FFFFFF;" d="M392.812,358.117H141.261V181.38h251.553v176.737H392.812z M149.609,349.766h234.854V189.728
		H149.609V349.766z"/>
	<path style="fill:#FFFFFF;" d="M392.812,189.728H141.261v-37.361h251.553v37.361H392.812z M149.609,181.38h234.854v-20.664H149.609
		V181.38z"/>
	<path style="fill:#FFFFFF;" d="M299.243,339.373H160.003v-64.43h139.241V339.373z M168.351,331.025h122.545v-47.731H168.351
		V331.025z"/>
	<path style="fill:#FFFFFF;" d="M224.428,264.552h-64.425v-64.43h64.425V264.552z M168.351,256.201h47.726V208.47h-47.726V256.201z"
		/>
	<path style="fill:#FFFFFF;" d="M299.243,264.552h-64.422v-64.43h64.422V264.552z M243.169,256.201h47.726V208.47h-47.726V256.201z"
		/>
	<path style="fill:#FFFFFF;" d="M374.065,264.552h-64.428v-64.43h64.428V264.552z M317.985,256.201h47.734V208.47h-47.734V256.201z"
		/>
	<rect x="309.632" y="274.943" style="fill:#FFFFFF;" width="64.435" height="8.351"/>
	<rect x="309.632" y="293.631" style="fill:#FFFFFF;" width="64.435" height="8.348"/>
	<rect x="309.632" y="312.319" style="fill:#FFFFFF;" width="36.388" height="8.348"/>
	<rect x="121.267" y="166.885" style="fill:#FFFFFF;" width="70.943" height="8.348"/>
	<rect x="121.267" y="228.172" style="fill:#FFFFFF;" width="70.943" height="8.348"/>
	<rect x="121.267" y="302.975" style="fill:#FFFFFF;" width="70.943" height="8.351"/>
	<path style="fill:#FFFFFF;" d="M112.328,175.22h-8.942v-8.348h8.942V175.22z M94.444,175.22h-8.942v-8.348h8.942V175.22z"/>
	<path style="fill:#FFFFFF;" d="M112.328,236.509h-8.942v-8.346h8.942V236.509z M94.444,236.509h-8.942v-8.346h8.942V236.509z"/>
	<path style="fill:#FFFFFF;" d="M112.328,311.333h-8.942v-8.351h8.942V311.333z M94.444,311.333h-8.942v-8.351h8.942V311.333z"/>
	<rect x="141.261" y="122.126" style="fill:#FFFFFF;" width="50.952" height="8.348"/>
	<rect x="346.035" y="380.005" style="fill:#FFFFFF;" width="46.787" height="8.351"/>
	<rect x="229.632" y="380.005" style="fill:#FFFFFF;" width="102.377" height="8.351"/>
</g>
<rect y="447.359" style="fill:#3E4959;" width="445.235" height="55.652"/>
<rect y="484.453" style="fill:#242D3C;" width="445.235" height="18.55"/>
<g>
	<rect x="8.781" y="447.359" style="fill:#FFFFFF;" width="5.289" height="9.272"/>
	<rect x="22.886" y="447.359" style="fill:#FFFFFF;" width="5.281" height="9.272"/>
	<rect x="36.948" y="447.359" style="fill:#FFFFFF;" width="5.274" height="9.272"/>
	<rect x="51.011" y="447.359" style="fill:#FFFFFF;" width="5.322" height="9.272"/>
	<rect x="65.114" y="447.359" style="fill:#FFFFFF;" width="5.286" height="9.272"/>
	<rect x="79.178" y="447.359" style="fill:#FFFFFF;" width="5.284" height="9.272"/>
	<rect x="93.251" y="447.359" style="fill:#FFFFFF;" width="5.309" height="9.272"/>
	<rect x="107.346" y="447.359" style="fill:#FFFFFF;" width="5.281" height="9.272"/>
	<rect x="121.421" y="447.359" style="fill:#FFFFFF;" width="5.271" height="9.272"/>
	<rect x="135.514" y="447.359" style="fill:#FFFFFF;" width="5.284" height="9.272"/>
	<rect x="149.581" y="447.359" style="fill:#FFFFFF;" width="5.271" height="9.272"/>
	<rect x="163.64" y="447.359" style="fill:#FFFFFF;" width="5.315" height="9.272"/>
	<rect x="177.741" y="447.359" style="fill:#FFFFFF;" width="5.279" height="9.272"/>
	<rect x="191.803" y="447.359" style="fill:#FFFFFF;" width="5.286" height="9.272"/>
	<rect x="205.901" y="447.359" style="fill:#FFFFFF;" width="5.276" height="9.272"/>
	<rect x="219.981" y="447.359" style="fill:#FFFFFF;" width="5.279" height="9.272"/>
	<rect x="234.035" y="447.359" style="fill:#FFFFFF;" width="5.284" height="9.272"/>
	<rect x="248.141" y="447.359" style="fill:#FFFFFF;" width="5.284" height="9.272"/>
	<rect x="262.195" y="447.359" style="fill:#FFFFFF;" width="5.281" height="9.272"/>
	<rect x="276.275" y="447.359" style="fill:#FFFFFF;" width="5.315" height="9.272"/>
	<rect x="290.381" y="447.359" style="fill:#FFFFFF;" width="5.268" height="9.272"/>
	<rect x="304.435" y="447.359" style="fill:#FFFFFF;" width="5.292" height="9.272"/>
	<rect x="318.541" y="447.359" style="fill:#FFFFFF;" width="5.274" height="9.272"/>
	<rect x="332.595" y="447.359" style="fill:#FFFFFF;" width="5.281" height="9.272"/>
	<rect x="346.675" y="447.359" style="fill:#FFFFFF;" width="5.299" height="9.272"/>
	<rect x="360.755" y="447.359" style="fill:#FFFFFF;" width="5.281" height="9.272"/>
	<rect x="374.835" y="447.359" style="fill:#FFFFFF;" width="5.279" height="9.272"/>
	<rect x="388.915" y="447.359" style="fill:#FFFFFF;" width="5.307" height="9.272"/>
	<rect x="402.995" y="447.359" style="fill:#FFFFFF;" width="5.281" height="9.272"/>
	<rect x="417.05" y="447.359" style="fill:#FFFFFF;" width="5.281" height="9.272"/>
	<rect x="431.155" y="447.359" style="fill:#FFFFFF;" width="5.284" height="9.272"/>
</g>
<g>
	<rect x="478.618" y="132.266" style="fill:#F15424;" width="33.382" height="340.147"/>
	<rect x="478.618" y="472.396" style="fill:#D9D8D7;" width="33.382" height="8.023"/>
	<path style="fill:#242D3C;" d="M512,480.439v5.898c0,9.219-7.475,16.676-16.686,16.676c-9.226,0-16.707-7.457-16.707-16.676v-5.898
		L512,480.439L512,480.439z"/>
</g>
<polygon style="fill:#D9D8D7;" points="511.992,132.266 500.836,110.908 489.743,110.908 478.607,132.266 "/>
<polygon style="fill:#242D3C;" points="500.836,110.908 495.268,100.228 489.743,110.908 "/>
<g>
</g>
<g>
</g>
<g>
</g>
<g>
</g>
<g>
</g>
<g>
</g>
<g>
</g>
<g>
</g>
<g>
</g>
<g>
</g>
<g>
</g>
<g>
</g>
<g>
</g>
<g>
</g>
<g>
</g>
</svg>
