<?xml version="1.0" encoding="iso-8859-1"?>
<!-- Generator: Adobe Illustrator 19.0.0, SVG Export Plug-In . SVG Version: 6.00 Build 0)  -->
<svg version="1.1" id="Layer_1" xmlns="http://www.w3.org/2000/svg" xmlns:xlink="http://www.w3.org/1999/xlink" x="0px" y="0px"
	 viewBox="0 0 512 512" style="enable-background:new 0 0 512 512;" xml:space="preserve">
<path style="fill:#242D3C;" d="M418.253,512L394.67,368.96l39.677-130.304c6.029-17.592,9.029-35.681,9.029-54.075
	c0-91.54-74.468-166.019-166.006-166.019c-91.556,0-166.034,74.476-166.034,166.019l-0.118,22.62L76.017,310.18h41.277
	l8.745,110.093l87.588-8.049l11.978,97.134l-18.424,2.273l-9.777-79.276l-88.384,8.12l-8.878-111.731H50.058l42.614-124.68
	l0.105-19.53C92.774,82.803,175.585,0,277.373,0c101.77,0,184.568,82.803,184.568,184.581c0,20.447-3.343,40.561-9.93,59.786
	l-38.318,125.852l22.881,138.76L418.253,512z"/>
<path style="fill:#F96232;" d="M379.443,192.335v-15.516l-22.147-4.462c-0.924-5.962-2.504-11.709-4.639-17.175l16.98-15.002
	l-7.716-13.315l-21.455,7.217c-3.763-4.649-7.972-8.878-12.652-12.595l7.247-21.514l-13.368-7.695l-14.979,17.037
	c-5.445-2.135-11.172-3.712-17.134-4.611l-4.48-22.236h-15.468l-4.47,22.236c-5.972,0.893-11.707,2.468-17.175,4.608L233.024,92.28
	l-13.384,7.695l7.242,21.532c-4.636,3.72-8.886,7.944-12.585,12.588l-21.509-7.227l-7.713,13.315l17.019,15.04
	c-2.135,5.445-3.715,11.174-4.59,17.116l-22.262,4.483l0.033,15.516l22.228,4.449c0.876,5.957,2.455,11.694,4.603,17.149
	l-17.032,15.009l7.713,13.33l21.509-7.255c3.699,4.654,7.951,8.878,12.588,12.608l-7.247,21.509l13.384,7.716l14.948-17.037
	c5.473,2.14,11.22,3.707,17.185,4.616l4.477,22.264H285.1l4.488-22.272c5.962-0.909,11.692-2.486,17.162-4.608l14.968,17.037
	l13.343-7.716l-7.255-21.486c4.687-3.727,8.899-7.972,12.659-12.626l21.455,7.247l7.716-13.33l-16.988-14.981
	c2.135-5.46,3.72-11.22,4.644-17.198L379.443,192.335z M277.34,227.123c-23.475,0-42.527-19.046-42.527-42.547
	c0-23.491,19.052-42.537,42.527-42.537c23.508,0,42.537,19.046,42.537,42.537C319.877,208.074,300.849,227.123,277.34,227.123z"/>
<g>
	<path style="fill:#242D3C;" d="M277.34,236.403c-28.572,0-51.809-23.25-51.809-51.827c0-28.575,23.237-51.82,51.809-51.82
		c28.57,0,51.82,23.245,51.82,51.82C329.16,213.153,305.91,236.403,277.34,236.403z M277.34,151.319
		c-18.332,0-33.247,14.92-33.247,33.257c0,18.342,14.915,33.265,33.247,33.265c18.337,0,33.247-14.922,33.247-33.265
		C310.587,166.239,295.677,151.319,277.34,151.319z"/>
	<path style="fill:#242D3C;" d="M267.617,329.055c-6.561-0.435-13.151-1.329-19.571-2.647l3.732-18.181
		c5.604,1.149,11.343,1.925,17.065,2.301L267.617,329.055z M287.347,329.032l-1.267-18.519c5.727-0.387,11.466-1.175,17.06-2.335
		l3.771,18.171C300.498,327.683,293.911,328.584,287.347,329.032z M228.992,321.103c-6.195-2.191-12.301-4.838-18.138-7.862
		l8.535-16.486c5.087,2.639,10.401,4.946,15.793,6.856L228.992,321.103z M325.939,321.014l-6.231-17.487
		c5.386-1.923,10.701-4.229,15.777-6.876l8.573,16.466C338.222,316.152,332.127,318.81,325.939,321.014z M193.964,302.976
		c-5.348-3.781-10.511-7.964-15.327-12.452l12.654-13.583c4.204,3.914,8.701,7.57,13.376,10.865L193.964,302.976z M360.906,302.835
		l-10.732-15.147c4.68-3.31,9.172-6.976,13.353-10.885l12.682,13.558C371.412,294.843,366.267,299.039,360.906,302.835z
		 M165.148,276.114c-4.157-5.087-8-10.506-11.425-16.105l15.836-9.684c2.985,4.882,6.339,9.608,9.961,14.047L165.148,276.114z
		 M389.683,275.93l-14.392-11.72c3.62-4.449,6.963-9.18,9.94-14.07l15.852,9.656C397.673,265.398,393.846,270.828,389.683,275.93z
		 M144.602,242.506c-2.634-6.029-4.874-12.291-6.651-18.614l17.869-5.028c1.546,5.504,3.5,10.954,5.791,16.202L144.602,242.506z
		 M410.181,242.258l-17.019-7.406c2.286-5.24,4.219-10.703,5.773-16.228l17.869,5C415.035,229.972,412.8,236.242,410.181,242.258z
		 M133.916,204.557c-0.896-6.479-1.359-13.105-1.367-19.697l18.563-0.031c0.008,5.755,0.41,11.538,1.193,17.183L133.916,204.557z
		 M420.805,204.273l-18.396-2.506c0.776-5.65,1.157-11.433,1.157-17.188v-0.53h18.573v0.53
		C422.139,191.173,421.688,197.798,420.805,204.273z M152.236,167.639l-18.396-2.478c0.881-6.528,2.209-13.033,3.96-19.351
		l17.887,4.959C154.163,156.273,153.004,161.943,152.236,167.639z M402.342,166.907c-0.794-5.678-1.984-11.341-3.553-16.837
		l17.864-5.069c1.792,6.313,3.159,12.818,4.07,19.336L402.342,166.907z M161.421,134.533l-17.042-7.37
		c2.606-6.021,5.652-11.93,9.068-17.554l15.875,9.618C166.354,124.134,163.689,129.28,161.421,134.533z M392.96,133.868
		c-2.294-5.228-4.977-10.353-7.972-15.235l15.813-9.715c3.443,5.604,6.531,11.492,9.165,17.487L392.96,133.868z M179.238,105.142
		l-14.413-11.694c4.124-5.087,8.643-9.948,13.437-14.451l12.713,13.53C186.783,96.458,182.84,100.703,179.238,105.142z
		 M375.007,104.604c-3.645-4.431-7.616-8.655-11.809-12.549l12.636-13.601c4.803,4.462,9.354,9.298,13.524,14.377L375.007,104.604z
		 M204.296,81.623l-10.755-15.135c5.358-3.802,11.021-7.276,16.832-10.317l8.596,16.453C213.911,75.272,208.97,78.3,204.296,81.623z
		 M349.814,81.219c-4.703-3.297-9.664-6.3-14.746-8.916l8.507-16.504c5.819,3.003,11.515,6.446,16.904,10.227L349.814,81.219z
		 M234.737,65.72l-6.262-17.475c6.185-2.217,12.585-4.027,19.018-5.373l3.807,18.166C245.696,62.213,240.125,63.785,234.737,65.72z
		 M319.26,65.477c-5.412-1.902-11-3.448-16.602-4.588l3.702-18.191c6.438,1.308,12.851,3.082,19.062,5.266L319.26,65.477z
		 M268.349,58.665l-1.3-18.516c6.531-0.458,13.174-0.481,19.73-0.061l-1.185,18.529C279.857,58.248,274.063,58.266,268.349,58.665z"
		/>
</g>
<g>
</g>
<g>
</g>
<g>
</g>
<g>
</g>
<g>
</g>
<g>
</g>
<g>
</g>
<g>
</g>
<g>
</g>
<g>
</g>
<g>
</g>
<g>
</g>
<g>
</g>
<g>
</g>
<g>
</g>
</svg>
