<?xml version="1.0" encoding="iso-8859-1"?>
<!-- Generator: Adobe Illustrator 19.0.0, SVG Export Plug-In . SVG Version: 6.00 Build 0)  -->
<svg version="1.1" id="Layer_1" xmlns="http://www.w3.org/2000/svg" xmlns:xlink="http://www.w3.org/1999/xlink" x="0px" y="0px"
	 viewBox="0 0 511.994 511.994" style="enable-background:new 0 0 511.994 511.994;" xml:space="preserve">
<g>
	<rect x="306.736" y="406.863" style="fill:#242D3C;" width="17.654" height="64.205"/>
	<rect x="187.568" y="406.863" style="fill:#242D3C;" width="17.654" height="64.205"/>
	<rect x="175.741" y="398.056" style="fill:#242D3C;" width="160.507" height="17.654"/>
	<rect x="175.741" y="430.159" style="fill:#242D3C;" width="160.507" height="17.654"/>
	<rect x="175.741" y="462.261" style="fill:#242D3C;" width="160.507" height="17.654"/>
	<rect x="220.311" y="494.338" style="fill:#242D3C;" width="71.334" height="17.656"/>
	<path style="fill:#242D3C;" d="M324.382,415.7H187.556v-8.827c0-30.802-13.094-60.411-35.924-81.226l-1.129-0.988
		c-0.991-0.865-1.958-1.718-2.926-2.516l-0.333-0.289c-33.426-30.566-52.595-73.992-52.595-119.148
		c0-88.965,72.374-161.339,161.334-161.339c88.973,0,161.352,72.374,161.352,161.339c0,45.128-19.185,88.553-52.639,119.148
		l-0.302,0.266c-1.014,0.847-2.033,1.761-3.059,2.685l-1.014,0.911c-22.817,20.7-35.935,50.301-35.935,81.16v8.824H324.382z
		 M204.902,398.046h102.136c2.281-32.602,17.106-63.357,41.469-85.463l1.029-0.922c1.134-1.019,2.263-2.022,3.382-2.967
		c29.716-27.251,46.758-65.874,46.758-105.992c0-79.227-64.463-143.685-143.695-143.685c-79.227,0-143.677,64.458-143.677,143.685
		c0,40.143,17.014,78.756,46.697,105.976c1.039,0.865,2.081,1.777,3.141,2.706l1.234,1.078
		C187.819,334.75,202.621,365.509,204.902,398.046z"/>
	<rect x="247.165" y="364.495" style="fill:#242D3C;" width="17.654" height="42.371"/>
</g>
<g>
	<path style="fill:#F96232;" d="M313.843,293.946c2.885,1.224,6.075,1.879,9.393,1.879c13.663,0,24.709-11.052,24.709-24.694
		c0-1.894-0.218-3.727-0.609-5.45c5.97-0.246,11.901-2.673,16.456-7.227c9.152-9.132,9.638-23.616,1.444-33.334
		c8.463-3.907,14.331-12.48,14.331-22.42c0-9.951-5.868-18.511-14.331-22.426c8.192-9.7,7.708-24.197-1.444-33.324
		c-4.552-4.564-10.486-6.976-16.456-7.204c0.392-1.764,0.609-3.599,0.609-5.489c0-13.642-11.046-24.714-24.709-24.714
		c-3.318,0-6.508,0.694-9.393,1.887c-2.253-11.369-12.234-19.95-24.251-19.95c-13.652,0-24.709,11.059-24.709,24.694v173.038
		c0,13.652,11.057,24.694,24.709,24.694C301.606,313.909,311.6,305.318,313.843,293.946z"/>
	<path style="fill:#F96232;" d="M198.144,293.946c-2.906,1.224-6.085,1.879-9.398,1.879c-13.658,0-24.712-11.052-24.712-24.694
		c0-1.894,0.212-3.727,0.602-5.45c-5.96-0.246-11.873-2.673-16.453-7.227c-9.116-9.132-9.608-23.616-1.439-33.334
		c-8.471-3.907-14.346-12.48-14.346-22.42c0-9.951,5.878-18.511,14.346-22.426c-8.169-9.7-7.677-24.197,1.439-33.324
		c4.582-4.564,10.493-6.976,16.453-7.204c-0.389-1.764-0.602-3.599-0.602-5.489c0-13.642,11.054-24.714,24.712-24.714
		c3.31,0,6.492,0.694,9.398,1.887c2.214-11.369,12.221-19.95,24.261-19.95c13.652,0,24.681,11.059,24.681,24.694v173.038
		c0,13.652-11.028,24.694-24.681,24.694C210.365,313.909,200.358,305.318,198.144,293.946z"/>
</g>
<path style="fill:#242D3C;" d="M354.424,379.906l-8.589-15.424c4.964-2.76,9.851-5.786,14.531-8.991l9.976,14.569
	C365.209,373.573,359.856,376.888,354.424,379.906z M157.235,379.763c-5.417-3.028-10.77-6.349-15.892-9.869l9.994-14.556
	c4.68,3.213,9.564,6.244,14.513,9.011L157.235,379.763z M385.275,358.794L374.013,345.2c4.362-3.617,8.622-7.488,12.641-11.492
	l12.465,12.508C394.713,350.602,390.057,354.836,385.275,358.794z M126.425,358.597c-4.767-3.965-9.416-8.207-13.824-12.618
	l12.495-12.475c4.022,4.024,8.266,7.898,12.618,11.515L126.425,358.597z M411.758,332.41l-13.563-11.31
	c3.633-4.349,7.107-8.929,10.335-13.609l14.538,10.017C419.538,322.634,415.731,327.646,411.758,332.41z M100.001,332.147
	c-3.965-4.774-7.764-9.797-11.282-14.925l14.561-9.989c3.21,4.682,6.676,9.272,10.301,13.632L100.001,332.147z M432.957,301.621
	l-15.404-8.635c2.775-4.948,5.345-10.081,7.644-15.27l16.141,7.171C438.817,290.565,435.998,296.197,432.957,301.621z
	 M78.863,301.319c-3.031-5.425-5.837-11.059-8.358-16.755l16.146-7.14c2.299,5.197,4.861,10.34,7.626,15.283L78.863,301.319z
	 M448.125,267.443l-16.73-5.635c1.807-5.361,3.382-10.885,4.687-16.417l17.185,4.052
	C451.832,255.51,450.101,261.562,448.125,267.443z M63.736,267.117c-1.974-5.898-3.699-11.95-5.123-18.007l17.185-4.037
	c1.3,5.527,2.872,11.052,4.675,16.425L63.736,267.117z M456.716,231.05l-17.48-2.45c0.786-5.624,1.321-11.346,1.59-17.014
	l17.636,0.842C458.171,218.631,457.582,224.898,456.716,231.05z M55.188,230.707c-0.85-6.154-1.423-12.421-1.702-18.629
	l17.633-0.796c0.259,5.67,0.781,11.392,1.559,17.011L55.188,230.707z M440.865,194.49c-0.241-5.658-0.755-11.382-1.526-17.014
	l17.498-2.386c0.84,6.17,1.403,12.439,1.672,18.637L440.865,194.49z M71.129,194.186l-17.638-0.814
	c0.294-6.213,0.865-12.48,1.713-18.621l17.49,2.414C71.915,182.776,71.39,188.502,71.129,194.186z M436.252,160.683
	c-1.285-5.532-2.847-11.059-4.644-16.433l16.755-5.588c1.964,5.893,3.676,11.96,5.084,18.02L436.252,160.683z M75.809,160.371
	l-17.193-4.022c1.416-6.044,3.133-12.104,5.105-18.004l16.748,5.591C78.663,149.322,77.102,154.851,75.809,160.371z
	 M425.461,128.314c-2.286-5.181-4.838-10.335-7.598-15.299l15.437-8.573c3.026,5.445,5.824,11.085,8.32,16.763L425.461,128.314z
	 M86.625,128.015l-16.156-7.135c2.514-5.686,5.317-11.325,8.343-16.75l15.424,8.591C91.479,117.677,88.911,122.821,86.625,128.015z
	 M408.891,98.47c-3.2-4.685-6.659-9.277-10.276-13.65l13.601-11.256c3.965,4.79,7.747,9.823,11.254,14.953L408.891,98.47z
	 M103.229,98.206L88.67,88.222c3.517-5.128,7.311-10.15,11.282-14.927l13.581,11.279C109.903,88.936,106.447,93.524,103.229,98.206z
	 M387.133,72.163c-4.004-4.022-8.246-7.908-12.595-11.548l11.318-13.548c4.764,3.981,9.405,8.236,13.793,12.641L387.133,72.163z
	 M125.045,71.948l-12.49-12.483c4.393-4.393,9.042-8.637,13.824-12.613l11.292,13.573C133.299,64.056,129.057,67.932,125.045,71.948
	z M360.926,50.273c-4.672-3.22-9.549-6.264-14.49-9.037l8.637-15.398c5.417,3.039,10.762,6.372,15.882,9.907L360.926,50.273z
	 M151.293,50.106l-9.997-14.548c5.115-3.52,10.468-6.845,15.89-9.879l8.617,15.411C160.852,43.855,155.968,46.893,151.293,50.106z
	 M331.174,33.574c-5.179-2.304-10.537-4.398-15.905-6.208l5.645-16.727c5.891,1.987,11.758,4.278,17.441,6.81L331.174,33.574z
	 M181.084,33.446l-7.158-16.143c5.691-2.516,11.558-4.797,17.446-6.781l5.627,16.735C191.631,29.066,186.276,31.144,181.084,33.446z
	 M298.852,22.658c-5.519-1.308-11.167-2.371-16.783-3.162l2.458-17.485c6.154,0.868,12.342,2.035,18.394,3.466L298.852,22.658z
	 M213.424,22.568l-4.05-17.185c6.052-1.423,12.237-2.58,18.391-3.443l2.442,17.49C224.586,20.216,218.939,21.27,213.424,22.568z
	 M265.075,17.881l-0.778-0.036c-5.734-0.259-11.446-0.253-17.083,0.01l-0.809-17.638c6.162-0.284,12.403-0.292,18.706-0.008
	l0.786,0.041L265.075,17.881z"/>
<g>
</g>
<g>
</g>
<g>
</g>
<g>
</g>
<g>
</g>
<g>
</g>
<g>
</g>
<g>
</g>
<g>
</g>
<g>
</g>
<g>
</g>
<g>
</g>
<g>
</g>
<g>
</g>
<g>
</g>
</svg>
