<?xml version="1.0" encoding="iso-8859-1"?>
<!-- Generator: Adobe Illustrator 19.0.0, SVG Export Plug-In . SVG Version: 6.00 Build 0)  -->
<svg version="1.1" id="Capa_1" xmlns="http://www.w3.org/2000/svg" xmlns:xlink="http://www.w3.org/1999/xlink" x="0px" y="0px"
	 viewBox="0 0 512.066 512.066" style="enable-background:new 0 0 512.066 512.066;" xml:space="preserve">
<path style="fill:#43D3E8;" d="M218.044,222.643c-15.246,14.079-35.618,22.723-58.022,22.723c-47.152,0-85.344-38.192-85.344-85.344
	s38.192-85.345,85.344-85.345c21.869,0,41.819,8.214,56.862,21.762c-9.069,19.31-14.191,40.86-14.191,63.582
	C202.693,182.21,209.097,203.651,218.044,222.643z"/>
<path style="fill:#F96232;" d="M437.389,160.021c0,47.152-38.192,85.344-85.344,85.344c-22.397,0-42.776-8.643-58.028-22.723
	c8.959-18.992,15.357-40.432,15.357-62.622c0-22.723-5.126-44.272-14.293-63.477c15.149-13.56,35.098-21.867,56.966-21.867
	C399.197,74.676,437.389,112.868,437.389,160.021z"/>
<g>
	<path style="fill:#403E3E;" d="M106.682,394.718H85.347v-32.005c0-29.463,0-48.921-28.879-77.799
		C30.417,258.865,0.002,210.526,0.002,160.021C0.002,71.785,71.788,0,160.022,0c24.091,0,47.173,5.198,68.608,15.445l-9.199,19.251
		c-18.544-8.864-38.532-13.36-59.409-13.36c-76.474,0-138.684,62.21-138.684,138.682c0,47.037,31.567,91.153,50.215,109.806
		c35.129,35.13,35.129,61.892,35.129,92.885V394.718L106.682,394.718z"/>
	<path style="fill:#403E3E;" d="M234.699,394.718h-21.335v-32.005c0-30.992,0-57.756,35.129-92.887
		c18.647-18.653,50.215-62.767,50.215-109.805c0-28.524-8.626-55.918-24.952-79.224l17.484-12.242
		c18.845,26.91,28.803,58.54,28.803,91.466c0,50.506-30.419,98.844-56.465,124.891c-28.878,28.879-28.878,48.337-28.878,77.801
		V394.718L234.699,394.718z"/>
</g>
<rect x="85.348" y="394.718" style="fill:#F96232;" width="149.353" height="74.673"/>
<g>
	<rect x="74.681" y="384.052" style="fill:#403E3E;" width="32" height="21.333"/>
	<rect x="74.681" y="426.718" style="fill:#403E3E;" width="32" height="21.333"/>
	<rect x="128.015" y="384.052" style="fill:#403E3E;" width="117.346" height="21.333"/>
	<rect x="128.015" y="426.718" style="fill:#403E3E;" width="117.346" height="21.333"/>
	<path style="fill:#403E3E;" d="M192.025,512.066h-64.008c-5.708,0-11.069-2.221-15.096-6.262c-4.027-4.03-6.24-9.387-6.24-15.076
		v-21.335h21.336v21.335h64.007v-21.335h21.338v21.335c0,5.688-2.214,11.042-6.24,15.076
		C203.096,509.845,197.734,512.066,192.025,512.066z"/>
	<path style="fill:#403E3E;" d="M298.706,394.718h-21.337v-32.005c0-18.512,0-33.129-7.408-48.776l19.296-9.125
		c9.45,19.982,9.45,38.401,9.45,57.902V394.718z"/>
	<path style="fill:#403E3E;" d="M426.721,394.718h-21.336v-32.005c0-30.992,0-57.756,35.13-92.887
		c18.648-18.653,50.214-62.767,50.214-109.805c0-76.473-62.215-138.683-138.683-138.683c-76.468,0-138.683,62.21-138.683,138.683
		c0,36.416,18.861,69.035,30.102,85.24L225.93,257.42c-12.663-18.255-33.906-55.176-33.906-97.398
		c0-88.235,71.786-160.019,160.021-160.019c88.239,0,160.019,71.785,160.019,160.019c0,50.506-30.42,98.844-56.464,124.891
		c-28.879,28.879-28.879,48.337-28.879,77.8V394.718L426.721,394.718z"/>
</g>
<rect x="277.367" y="394.718" style="fill:#43D3E8;" width="149.353" height="74.673"/>
<g>
	<rect x="266.701" y="384.052" style="fill:#403E3E;" width="32.006" height="21.333"/>
	<rect x="266.701" y="426.718" style="fill:#403E3E;" width="32.006" height="21.333"/>
	<rect x="320.04" y="384.052" style="fill:#403E3E;" width="117.346" height="21.333"/>
	<rect x="320.04" y="426.718" style="fill:#403E3E;" width="117.346" height="21.333"/>
	<path style="fill:#403E3E;" d="M384.049,512.066H320.04c-5.699,0-11.054-2.221-15.083-6.253c-4.033-4.03-6.252-9.387-6.252-15.084
		v-21.336h21.335v21.336h64.008v-21.336h21.335v21.336c0,5.699-2.218,11.053-6.252,15.084
		C395.101,509.844,389.749,512.066,384.049,512.066z"/>
	<rect x="245.367" y="106.68" style="fill:#403E3E;" width="21.34" height="21.333"/>
	<rect x="245.367" y="149.353" style="fill:#403E3E;" width="21.34" height="21.333"/>
	<rect x="245.367" y="192.026" style="fill:#403E3E;" width="21.34" height="21.333"/>
</g>
<g>
</g>
<g>
</g>
<g>
</g>
<g>
</g>
<g>
</g>
<g>
</g>
<g>
</g>
<g>
</g>
<g>
</g>
<g>
</g>
<g>
</g>
<g>
</g>
<g>
</g>
<g>
</g>
<g>
</g>
</svg>
