<?xml version="1.0" encoding="iso-8859-1"?>
<!-- Generator: Adobe Illustrator 19.0.0, SVG Export Plug-In . SVG Version: 6.00 Build 0)  -->
<svg version="1.1" id="Layer_1" xmlns="http://www.w3.org/2000/svg" xmlns:xlink="http://www.w3.org/1999/xlink" x="0px" y="0px"
	 viewBox="0 0 512.003 512.003" style="enable-background:new 0 0 512.003 512.003;" xml:space="preserve">
<path style="fill:#242D3C;" d="M304.266,370.796l-2.514-8.855c3.461-0.98,6.922-2.089,10.291-3.277l3.069,8.676
	C311.565,368.594,307.912,369.756,304.266,370.796z M203.169,370.284c-3.635-1.078-7.278-2.281-10.829-3.574l3.167-8.643
	c3.361,1.229,6.82,2.373,10.268,3.389L203.169,370.284z M325.719,363.203l-3.615-8.463c3.305-1.405,6.597-2.939,9.784-4.539
	l4.142,8.212C332.669,360.105,329.198,361.718,325.719,363.203z M181.768,362.445c-3.474-1.518-6.935-3.172-10.284-4.908
	l4.227-8.174c3.182,1.651,6.461,3.218,9.761,4.669L181.768,362.445z M346.012,352.983l-4.641-7.941
	c3.09-1.812,6.164-3.745,9.142-5.742l5.13,7.634C352.517,349.043,349.274,351.078,346.012,352.983z M161.531,351.992
	c-3.231-1.938-6.454-4.012-9.577-6.154l5.215-7.588c2.967,2.04,6.029,4.009,9.093,5.844L161.531,351.992z M364.882,340.303
	l-5.601-7.309c2.824-2.161,5.637-4.462,8.358-6.84l6.047,6.938C370.821,335.59,367.857,338.015,364.882,340.303z M142.781,339.082
	c-2.975-2.33-5.914-4.782-8.735-7.304l6.124-6.868c2.678,2.388,5.471,4.718,8.292,6.932L142.781,339.082z M382.029,325.348
	l-6.469-6.543c2.557-2.529,5.061-5.161,7.444-7.839l6.868,6.134C387.361,319.916,384.724,322.685,382.029,325.348z M125.791,323.948
	c-2.655-2.683-5.263-5.486-7.747-8.325l6.925-6.062c2.363,2.703,4.841,5.366,7.363,7.913L125.791,323.948z M397.179,308.372
	l-7.232-5.688c2.214-2.819,4.378-5.74,6.418-8.701l7.575,5.225C401.789,302.328,399.516,305.408,397.179,308.372z M110.828,306.824
	c-2.307-3.005-4.544-6.113-6.646-9.229l7.629-5.146c1.997,2.962,4.119,5.914,6.313,8.763L110.828,306.824z M410.104,289.631
	l-7.89-4.731c1.861-3.095,3.635-6.275,5.281-9.441l8.166,4.229C413.932,283.028,412.065,286.374,410.104,289.631z M98.125,287.964
	c-1.91-3.264-3.738-6.623-5.437-9.987l8.212-4.147c1.613,3.195,3.351,6.385,5.164,9.482L98.125,287.964z M420.588,269.412
	l-8.43-3.707c1.457-3.308,2.821-6.687,4.05-10.035l8.643,3.167C423.547,262.369,422.118,265.93,420.588,269.412z M87.887,267.671
	c-1.492-3.476-2.885-7.048-4.145-10.601l8.673-3.08c1.198,3.379,2.519,6.758,3.935,10.063L87.887,267.671z M428.439,248.018
	l-8.819-2.614c1.016-3.451,1.943-6.971,2.742-10.452l8.968,2.056C430.492,240.684,429.517,244.388,428.439,248.018z M80.282,246.223
	c-1.037-3.64-1.971-7.352-2.772-11.041l8.991-1.953c0.763,3.494,1.651,7.025,2.632,10.476L80.282,246.223z M433.518,225.843
	l-9.078-1.492c0.579-3.517,1.044-7.119,1.405-10.706l9.16,0.904C434.627,218.332,434.127,222.131,433.518,225.843z M75.436,223.997
	c-0.566-3.722-1.024-7.526-1.362-11.3l9.165-0.822c0.32,3.587,0.753,7.196,1.298,10.726L75.436,223.997z M435.773,203.208
	l-9.198-0.348c0.074-2.117,0.12-4.252,0.12-6.38c0-1.469-0.018-2.944-0.059-4.424l-0.018-0.666l9.198-0.287l0.023,0.76
	c0.038,1.513,0.054,3.069,0.054,4.616C435.891,198.735,435.853,200.975,435.773,203.208z M73.411,201.347l-0.01-0.445
	c-0.038-1.508-0.056-3.052-0.056-4.598c0-2.122,0.036-4.239,0.11-6.346l9.196,0.325c-0.069,1.997-0.108,4.001-0.108,6.019
	c0,1.469,0.023,2.944,0.056,4.421L73.411,201.347z M425.971,180.59c-0.32-3.558-0.768-7.168-1.318-10.721l9.096-1.403
	c0.579,3.743,1.044,7.549,1.388,11.292L425.971,180.59z M83.359,179.497l-9.16-0.888c0.366-3.771,0.852-7.565,1.459-11.292
	l9.083,1.464C84.17,172.324,83.704,175.926,83.359,179.497z M422.666,159.247c-0.768-3.489-1.654-7.004-2.652-10.465l8.845-2.537
	c1.05,3.645,1.984,7.357,2.793,11.036L422.666,159.247z M86.799,158.18l-8.978-2.035c0.84-3.689,1.805-7.396,2.872-11.016
	l8.827,2.596C88.507,151.165,87.59,154.68,86.799,158.18z M416.701,138.501c-1.198-3.359-2.524-6.743-3.953-10.056l8.458-3.63
	c1.503,3.494,2.903,7.053,4.165,10.596L416.701,138.501z M92.902,137.449l-8.645-3.156c1.295-3.543,2.721-7.101,4.244-10.573
	l8.43,3.689C95.483,130.708,94.129,134.085,92.902,137.449z M408.184,118.674c-1.623-3.2-3.369-6.385-5.179-9.464l7.923-4.675
	c1.915,3.249,3.75,6.602,5.466,9.974L408.184,118.674z M101.581,117.647l-8.177-4.224c1.728-3.341,3.589-6.687,5.537-9.948
	l7.895,4.718C104.988,111.291,103.217,114.468,101.581,117.647z M397.24,100.091c-2.03-2.993-4.157-5.932-6.341-8.758l7.288-5.622
	c2.294,2.972,4.539,6.067,6.666,9.208L397.24,100.091z M112.673,99.098l-7.583-5.215c2.143-3.118,4.408-6.208,6.738-9.18
	l7.245,5.676C116.861,93.204,114.708,96.133,112.673,99.098z M384.038,82.995c-2.355-2.688-4.844-5.345-7.38-7.898l6.525-6.487
	c2.673,2.683,5.284,5.486,7.772,8.315L384.038,82.995z M125.996,82.081l-6.876-6.111c2.514-2.829,5.146-5.612,7.826-8.266
	l6.479,6.531C130.883,76.759,128.381,79.398,125.996,82.081z M368.804,67.676c-2.688-2.378-5.481-4.708-8.305-6.917l5.665-7.25
	c2.977,2.324,5.921,4.772,8.748,7.288L368.804,67.676z M141.327,66.87l-6.06-6.922c2.844-2.493,5.801-4.918,8.791-7.227l5.617,7.286
	C146.836,62.195,144.028,64.504,141.327,66.87z M351.782,54.374c-2.977-2.035-6.039-4.001-9.111-5.834l4.713-7.903
	c3.238,1.933,6.464,4.001,9.595,6.144L351.782,54.374z M158.428,53.683l-5.148-7.619c3.116-2.107,6.351-4.147,9.618-6.067
	l4.662,7.928C164.462,49.756,161.388,51.686,158.428,53.683z M333.212,43.295c-3.2-1.644-6.479-3.205-9.761-4.641l3.684-8.435
	c3.461,1.513,6.922,3.156,10.291,4.897L333.212,43.295z M177.032,42.757l-4.15-8.212c3.374-1.708,6.84-3.325,10.296-4.81l3.63,8.463
	C183.526,39.601,180.242,41.134,177.032,42.757z M313.411,34.637c-3.402-1.234-6.858-2.378-10.281-3.374l2.591-8.832
	c3.607,1.062,7.247,2.253,10.829,3.558L313.411,34.637z M196.867,34.25l-3.085-8.668c3.564-1.27,7.209-2.435,10.839-3.471
	l2.532,8.845C203.707,31.939,200.246,33.047,196.867,34.25z M292.669,28.547c-3.517-0.794-7.089-1.48-10.604-2.04l1.446-9.088
	c3.717,0.594,7.478,1.324,11.185,2.156L292.669,28.547z M217.623,28.319l-1.971-8.996c3.689-0.806,7.457-1.508,11.192-2.079
	l1.395,9.093C224.694,26.883,221.123,27.546,217.623,28.319z M271.352,25.124c-3.566-0.343-7.191-0.571-10.78-0.696l0.31-9.198
	c3.776,0.131,7.598,0.374,11.359,0.735L271.352,25.124z M238.968,25.032l-0.824-9.165c3.753-0.343,7.572-0.561,11.359-0.668
	l0.259,9.196C246.164,24.492,242.537,24.704,238.968,25.032z"/>
<rect x="240.691" y="328.041" style="fill:#3E4959;" width="27.894" height="30.899"/>
<path style="fill:#242D3C;" d="M389.212,196.388c0,74.36-60.27,134.607-134.605,134.607c-74.337,0-134.579-60.244-134.579-134.607
	c0-74.33,60.242-134.579,134.579-134.579C328.942,61.809,389.212,122.061,389.212,196.388z"/>
<path style="fill:#06B2B8;" d="M363.215,196.388c0,59.983-48.635,108.557-108.608,108.557c-59.945,0-108.554-48.573-108.554-108.557
	c0-59.973,48.609-108.549,108.554-108.549C314.58,87.839,363.215,136.417,363.215,196.388z"/>
<path style="fill:#21D8DE;" d="M347.412,196.388c0,51.249-41.562,92.751-92.805,92.751c-51.21,0-92.749-41.503-92.749-92.751
	c0-51.238,41.541-92.751,92.749-92.751C305.851,103.636,347.412,145.152,347.412,196.388z"/>
<polygon style="fill:#242D3C;" points="282.972,164.198 226.232,164.198 222.359,246.735 286.884,246.735 "/>
<g>
	<path style="fill:#FFFFFF;" d="M318.464,263.657c-16.614,15.77-39.117,25.472-63.846,25.472s-47.232-9.702-63.872-25.472
		l1.306-4.099c0.896-2.842,2.406-5.53,4.582-7.834c2.15-2.33,4.685-4.019,7.45-5.146l29.312-11.648
		c1.485-0.589,2.79-1.613,3.763-2.995c0.947-1.459,1.434-3.021,1.434-4.659v-14.259h32.077v14.259c0,1.638,0.435,3.2,1.408,4.659
		c0.973,1.382,2.301,2.406,3.738,2.995l29.338,11.648c2.765,1.126,5.325,2.816,7.475,5.146c2.15,2.304,3.635,4.992,4.531,7.834
		L318.464,263.657z"/>
	<path style="fill:#FFFFFF;" d="M254.62,140.406c-17.559,0-30.036,12.785-30.036,39.869c0,22.917,13.437,42.263,30.036,42.263
		c16.573,0,30.036-19.348,30.036-42.263C284.657,153.188,272.148,140.406,254.62,140.406z"/>
</g>
<g>
	<path style="fill:#242D3C;" d="M281.562,141.86H254.62h-26.975c0,0-3.83,26.939,1.073,32.425c0.195-2.225,2.168-2.857,5.75-2.862
		c0,0,3.018-3.346,5.179-12.598c1.636,6.292,0.878,12.849,0.878,12.849c3.84,0.261,8.566,0.658,14.098,0.686
		c1.408,0,2.77-0.033,4.035-0.054c0,0,1.633-1.011,2.358-3.423c1.027,1.311,1.16,3.233,1.16,3.233
		c11.52-0.62,17.938-1.958,18.322,2.171C285.414,168.799,281.562,141.86,281.562,141.86z"/>
	<path style="fill:#242D3C;" d="M233.408,234.936c1.467-0.589,2.783-1.623,3.748-3.011c0.96-1.452,1.426-3.021,1.426-4.636v-6.085
		h-9.029c-1.165-8.507-1.828-16.904-1.828-24.85c0-23.521,1.62-32.325,8.125-40.276c8.402-10.227,18.772-12.342,18.772-12.342
		s10.368,2.117,18.762,12.342c6.508,7.951,8.092,16.755,8.092,40.276c0,7.946-0.62,16.343-1.818,24.85h-8.991v6.085
		c0,1.615,0.435,3.185,1.398,4.636c0.975,1.388,2.307,2.422,3.761,3.011l16.804,6.694c2.048-2.58,3.121-5.688,3.121-8.817v-11.61
		c0-19.482-0.586-44.897-4.708-63.444c-3.602-15.918-17.198-31.286-36.421-27.118c-19.236-4.168-32.819,11.2-36.426,27.118
		c-4.16,18.547-4.731,43.963-4.731,63.444v11.61c0,3.128,1.068,6.236,3.167,8.817L233.408,234.936z"/>
	<path style="fill:#242D3C;" d="M297.574,278.633c-12.854,6.682-27.469,10.499-42.957,10.499s-30.131-3.814-42.982-10.522
		c1.51-6.938,2.381-14.643,2.381-22.784c0-4.454-0.282-8.73-0.742-12.877h0.051l7.859-3.123l3.379,13.568
		c1.587,6.477,5.299,12.544,10.957,16.947c5.683,4.454,11.955,6.326,19.098,6.326c7.094,0,13.389-1.869,19.098-6.326
		c5.658-4.403,9.37-10.47,10.957-16.947l3.377-13.568l7.859,3.123h0.026c-0.509,4.147-0.768,8.422-0.768,12.877
		C295.168,263.964,296.038,271.695,297.574,278.633z"/>
</g>
<rect x="226.867" y="385.871" style="fill:#F15424;" width="55.485" height="126.131"/>
<g>
	<rect x="222.208" y="358.94" style="fill:#242D3C;" width="64.783" height="26.936"/>
	<circle style="fill:#242D3C;" cx="396.698" cy="301.417" r="29.445"/>
</g>
<g>
	<circle style="fill:#CCCBCA;" cx="119.06" cy="83.09" r="19.63"/>
	<circle style="fill:#CCCBCA;" cx="173.842" cy="6.543" r="6.543"/>
</g>
<g>
	<circle style="fill:#242D3C;" cx="35.515" cy="162.947" r="10.468"/>
	<circle style="fill:#242D3C;" cx="77.944" cy="338.691" r="6.198"/>
</g>
<circle style="fill:#CCCBCA;" cx="387.891" cy="367.747" r="8.817"/>
<path style="fill:#242D3C;" d="M370.575,13.092c0,7.222-5.868,13.082-13.084,13.082c-7.219,0-13.087-5.862-13.087-13.082
	c0-7.227,5.868-13.084,13.087-13.084C364.708,0.008,370.575,5.865,370.575,13.092z"/>
<g>
	<path style="fill:#CCCBCA;" d="M486.956,216.684c0,9.889-8.028,17.91-17.91,17.91c-9.9,0-17.915-8.02-17.915-17.91
		c0-9.894,8.015-17.91,17.915-17.91C478.927,198.774,486.956,206.789,486.956,216.684z"/>
	<circle style="fill:#CCCBCA;" cx="130.35" cy="378.755" r="15.703"/>
</g>
<g>
</g>
<g>
</g>
<g>
</g>
<g>
</g>
<g>
</g>
<g>
</g>
<g>
</g>
<g>
</g>
<g>
</g>
<g>
</g>
<g>
</g>
<g>
</g>
<g>
</g>
<g>
</g>
<g>
</g>
</svg>
