<?xml version="1.0" encoding="iso-8859-1"?>
<!-- Generator: Adobe Illustrator 19.0.0, SVG Export Plug-In . SVG Version: 6.00 Build 0)  -->
<svg version="1.1" id="Layer_1" xmlns="http://www.w3.org/2000/svg" xmlns:xlink="http://www.w3.org/1999/xlink" x="0px" y="0px"
	 viewBox="0 0 512 512" style="enable-background:new 0 0 512 512;" xml:space="preserve">
<path style="fill:#242D3C;" d="M194.074,68.408H28.526C12.849,68.408,0,81.236,0,96.955v351.982c0,15.7,12.851,28.518,28.526,28.518
	h165.548c15.695,0,28.495-12.828,28.495-28.518V96.955C222.566,81.236,209.769,68.408,194.074,68.408z"/>
<rect x="16.125" y="130.25" style="fill:#FFFFFF;" width="190.285" height="285.363"/>
<g>
	<rect x="31.096" y="352.282" style="fill:#F15424;" width="160.358" height="48.371"/>
	<rect x="31.096" y="145.224" style="fill:#F15424;" width="160.358" height="48.371"/>
	<rect x="31.096" y="208.563" style="fill:#F15424;" width="160.358" height="128.742"/>
</g>
<g>
	<path style="fill:#FFFFFF;" d="M139.635,311.741h-14.971V257.28c0-2.186-0.852-4.239-2.396-5.783
		c-1.541-1.544-3.594-2.394-5.778-2.394h-10.442c-2.179,0-4.237,0.852-5.786,2.401c-1.531,1.536-2.381,3.589-2.381,5.775v54.461
		H82.911V257.28c0-6.172,2.401-11.983,6.761-16.358c4.398-4.385,10.204-6.789,16.376-6.789h10.442
		c6.182,0,11.994,2.406,16.366,6.776c4.372,4.372,6.779,10.186,6.779,16.369V311.741z"/>
	<rect x="82.913" y="265.446" style="fill:#FFFFFF;" width="56.73" height="14.973"/>
</g>
<g>
	<path style="fill:#3E4959;" d="M93.652,455.36c-4.211,0-7.652-3.436-7.652-7.667v-2.301c0-4.257,3.441-7.649,7.652-7.649h35.277
		c4.198,0,7.636,3.392,7.636,7.649v2.301c0,4.232-3.438,7.667-7.636,7.667H93.652z"/>
	<path style="fill:#3E4959;" d="M118.479,99.315c0,3.976-3.203,7.16-7.171,7.16c-3.955,0-7.181-3.185-7.181-7.16
		c0-3.948,3.226-7.176,7.181-7.176C115.277,92.14,118.479,95.368,118.479,99.315z"/>
</g>
<g>
	<path style="fill:#242D3C;" d="M114.163,99.315c0,1.574-1.275,2.847-2.854,2.847s-2.877-1.272-2.877-2.847
		c0-1.564,1.298-2.888,2.877-2.888S114.163,97.751,114.163,99.315z"/>
	<path style="fill:#242D3C;" d="M483.505,68.408H317.96c-15.68,0-28.529,12.828-28.529,28.544v351.982
		c0,15.7,12.854,28.518,28.529,28.518h165.545c15.698,0,28.495-12.828,28.495-28.518V96.955
		C512,81.236,499.203,68.408,483.505,68.408z"/>
</g>
<rect x="305.562" y="130.25" style="fill:#FFFFFF;" width="190.285" height="285.363"/>
<g>
	<rect x="320.538" y="352.282" style="fill:#16C6CC;" width="160.358" height="48.371"/>
	<rect x="320.538" y="145.224" style="fill:#16C6CC;" width="160.358" height="48.371"/>
	<rect x="320.538" y="208.563" style="fill:#16C6CC;" width="160.358" height="128.742"/>
</g>
<g>
	<path style="fill:#242D3C;" d="M405.934,280.428h-33.59v-46.292h33.59c6.19,0,12.001,2.409,16.371,6.781
		c4.362,4.37,6.766,10.184,6.766,16.364c0,6.188-2.401,11.996-6.774,16.361C417.953,278.013,412.14,280.428,405.934,280.428z
		 M387.315,265.454h18.619c2.186,0,4.234-0.847,5.76-2.383c1.556-1.551,2.404-3.604,2.404-5.791c0-2.186-0.847-4.244-2.394-5.791
		c-1.539-1.539-3.584-2.386-5.773-2.386h-18.619v16.351H387.315z"/>
	<path style="fill:#242D3C;" d="M405.934,311.741h-33.59v-46.287h33.59c6.2,0,12.012,2.409,16.374,6.789
		c4.357,4.355,6.761,10.166,6.761,16.346c0,6.188-2.401,12.001-6.774,16.371C417.953,309.327,412.14,311.741,405.934,311.741z
		 M387.315,296.773h18.619c2.186,0,4.234-0.847,5.76-2.383c1.556-1.554,2.404-3.61,2.404-5.801c0-2.181-0.847-4.232-2.388-5.773
		c-1.541-1.544-3.589-2.391-5.778-2.391h-18.619v16.348H387.315z"/>
</g>
<g>
	<path style="fill:#3E4959;" d="M383.086,455.36c-4.211,0-7.652-3.436-7.652-7.667v-2.301c0-4.257,3.443-7.649,7.652-7.649h35.277
		c4.201,0,7.636,3.392,7.636,7.649v2.301c0,4.232-3.438,7.667-7.636,7.667H383.086z"/>
	<path style="fill:#3E4959;" d="M407.913,99.315c0,3.976-3.203,7.16-7.171,7.16c-3.953,0-7.181-3.185-7.181-7.16
		c0-3.948,3.228-7.176,7.181-7.176C404.71,92.14,407.913,95.368,407.913,99.315z"/>
</g>
<path style="fill:#242D3C;" d="M403.597,99.315c0,1.574-1.275,2.847-2.854,2.847c-1.577,0-2.877-1.272-2.877-2.847
	c0-1.564,1.3-2.888,2.877-2.888C402.322,96.428,403.597,97.751,403.597,99.315z"/>
<path style="fill:#F15424;" d="M448.653,65.405c0,26.463-21.448,47.905-47.91,47.905c-26.442,0-47.908-21.443-47.908-47.905
	c0-26.45,21.466-47.905,47.908-47.905C427.205,17.5,448.653,38.956,448.653,65.405z"/>
<polygon style="fill:#FFFFFF;" points="395.917,88.445 374.341,66.849 384.223,56.975 395.917,68.682 417.265,47.319 
	427.149,57.196 "/>
<path style="fill:#242D3C;" d="M261.988,494.5h-11.976v-11.978h11.976V494.5z M261.988,470.548h-11.976V458.57h11.976V470.548z
	 M261.988,446.592h-11.976v-11.976h11.976V446.592z M261.988,422.641h-11.976v-11.976h11.976V422.641z M261.988,398.687h-11.976
	v-11.978h11.976V398.687z M261.988,374.735h-11.976v-11.978h11.976V374.735z M261.988,350.779h-11.976v-11.976h11.976V350.779z
	 M261.988,326.828h-11.976v-11.978h11.976V326.828z M261.988,302.876h-11.976v-11.978h11.976V302.876z M261.988,278.92h-11.976
	v-11.976h11.976V278.92z M261.988,254.968h-11.976v-11.976h11.976V254.968z M261.988,231.014h-11.976v-11.978h11.976V231.014z
	 M261.988,207.06h-11.976v-11.976h11.976V207.06z M261.988,183.109h-11.976v-11.978h11.976V183.109z M261.988,159.155h-11.976
	V147.18h11.976V159.155z M261.988,135.201h-11.976v-11.976h11.976V135.201z M261.988,111.25h-11.976V99.274h11.976V111.25z
	 M261.988,87.296h-11.976V75.32h11.976V87.296z M261.988,63.342h-11.976V51.364h11.976V63.342z"/>
<g>
</g>
<g>
</g>
<g>
</g>
<g>
</g>
<g>
</g>
<g>
</g>
<g>
</g>
<g>
</g>
<g>
</g>
<g>
</g>
<g>
</g>
<g>
</g>
<g>
</g>
<g>
</g>
<g>
</g>
</svg>
