<?xml version="1.0" encoding="iso-8859-1"?>
<!-- Generator: Adobe Illustrator 19.0.0, SVG Export Plug-In . SVG Version: 6.00 Build 0)  -->
<svg version="1.1" id="Capa_1" xmlns="http://www.w3.org/2000/svg" xmlns:xlink="http://www.w3.org/1999/xlink" x="0px" y="0px"
	 viewBox="0 0 511.999 511.999" style="enable-background:new 0 0 511.999 511.999;" xml:space="preserve">
<g>
	<path style="fill:#403E3E;" d="M458.667,474.666H53.333c-14.239,0-27.636-5.552-37.709-15.625C5.547,448.958,0,435.572,0,421.333
		v-32h185.749l21.333,21.333h97.834l21.333-21.333h185.75v32c0,14.239-5.552,27.635-15.625,37.708
		C486.301,469.114,472.906,474.666,458.667,474.666z M21.333,410.666v10.667c0,8.542,3.328,16.573,9.38,22.624
		c6.041,6.042,14.078,9.375,22.62,9.375h405.333c8.542,0,16.583-3.333,22.625-9.375c6.041-6.041,9.375-14.083,9.375-22.624v-10.667
		H335.083l-21.333,21.333h-115.5l-21.334-21.333L21.333,410.666L21.333,410.666z"/>
	<path style="fill:#403E3E;" d="M53.333,399.999H32V144c0-8.547,3.328-16.583,9.375-22.625C47.417,115.328,55.453,112,64,112
		h117.333v21.333H64c-2.849,0-5.526,1.109-7.541,3.125c-2.016,2.016-3.125,4.693-3.125,7.542
		C53.333,144,53.333,399.999,53.333,399.999z"/>
	<rect x="458.665" y="250.67" style="fill:#403E3E;" width="21.333" height="149.336"/>
</g>
<rect x="74.668" y="154.669" style="fill:#43D3E8;" width="362.664" height="213.336"/>
<g>
	<rect x="202.67" y="325.329" style="fill:#FFFFFF;" width="21.333" height="21.334"/>
	<rect x="245.337" y="325.329" style="fill:#FFFFFF;" width="21.333" height="21.334"/>
	<rect x="288.004" y="325.329" style="fill:#FFFFFF;" width="21.333" height="21.334"/>
</g>
<polygon style="fill:#F96232;" points="202.666,37.333 202.666,229.333 245.333,229.333 245.333,271.999 288,229.333 480,229.333 
	480,37.333 "/>
<g>
</g>
<g>
</g>
<g>
</g>
<g>
</g>
<g>
</g>
<g>
</g>
<g>
</g>
<g>
</g>
<g>
</g>
<g>
</g>
<g>
</g>
<g>
</g>
<g>
</g>
<g>
</g>
<g>
</g>
</svg>
