<?xml version="1.0" encoding="iso-8859-1"?>
<!-- Generator: Adobe Illustrator 19.0.0, SVG Export Plug-In . SVG Version: 6.00 Build 0)  -->
<svg version="1.1" id="Layer_1" xmlns="http://www.w3.org/2000/svg" xmlns:xlink="http://www.w3.org/1999/xlink" x="0px" y="0px"
	 viewBox="0 0 512 512" style="enable-background:new 0 0 512 512;" xml:space="preserve">
<circle style="fill:#FFFFFF;" cx="176" cy="208" r="168"/>
<path style="fill:#5F6465;" d="M176,384C79.2,384,0,304.8,0,208S79.2,32,176,32s176,79.2,176,176S272.8,384,176,384z M176,48
	C88,48,16,120,16,208s72,160,160,160s160-72,160-160S264,48,176,48z"/>
<path style="fill:#F59D15;" d="M271.2,208c0-12,9.6-22.4,21.6-24c-3.2-15.2-8.8-29.6-17.6-42.4c-9.6,8-23.2,7.2-32-1.6
	c-8.8-8.8-8.8-22.4-1.6-32c-12.8-8.8-27.2-14.4-42.4-17.6c-1.6,12-11.2,21.6-24,21.6s-22.4-9.6-24-21.6
	c-15.2,3.2-29.6,8.8-42.4,17.6c8,9.6,7.2,23.2-1.6,32s-22.4,8.8-32,1.6c-8.8,12.8-14.4,27.2-17.6,42.4c12,1.6,21.6,11.2,21.6,24
	s-9.6,22.4-21.6,24c3.2,15.2,8.8,29.6,17.6,42.4c9.6-8,23.2-7.2,32,1.6s8.8,22.4,1.6,32c12.8,8,27.2,14.4,42.4,17.6
	c1.6-12,11.2-21.6,24-21.6s22.4,9.6,24,21.6c15.2-3.2,29.6-8.8,42.4-17.6c-8-9.6-7.2-23.2,1.6-32s22.4-8.8,32-1.6
	c8-12.8,14.4-27.2,17.6-42.4C280.8,230.4,271.2,220,271.2,208z"/>
<circle style="fill:#FFFFFF;" cx="176" cy="208" r="48"/>
<path style="fill:#5F6465;" d="M176,264c-31.2,0-56-24.8-56-56s24.8-56,56-56s56,24.8,56,56S207.2,264,176,264z M176,168
	c-22.4,0-40,17.6-40,40s17.6,40,40,40s40-17.6,40-40S198.4,168,176,168z"/>
<path style="fill:#76E1E5;" d="M392,352c56,32,112,24,112,104v16H152v-16c0-80,56-72,112-104H392z"/>
<polygon style="fill:#FFFFFF;" points="360,384 328,368 296,384 264,352 280,328 288,328 288,296 328,304 368,296 368,328 376,328 
	392,352 "/>
<g>
	<path style="fill:#5F6465;" d="M512,480H144v-24c0-64,35.2-77.6,73.6-92c13.6-5.6,28-10.4,43.2-19.2l8,13.6
		c-15.2,8.8-31.2,15.2-44.8,20c-37.6,14.4-63.2,24-63.2,76.8v8h336v-8c0-52.8-24.8-62.4-63.2-76.8c-13.6-5.6-29.6-11.2-44.8-20
		l8-13.6c14.4,8,28.8,13.6,43.2,19.2c36.8,14.4,72,28,72,92V480z"/>
	<path style="fill:#5F6465;" d="M361.6,393.6L328,376.8l-33.6,16.8l-40.8-40.8l22.4-33.6l52,8.8l52-8.8l22.4,33.6L361.6,393.6z
		 M328,359.2l30.4,15.2l23.2-23.2l-9.6-14.4l-44,7.2l-44-7.2l-9.6,14.4l23.2,23.2L328,359.2z"/>
	<rect x="360" y="296" style="fill:#5F6465;" width="16" height="32"/>
	<rect x="280" y="296" style="fill:#5F6465;" width="16" height="32"/>
	<rect x="320" y="432" style="fill:#5F6465;" width="16" height="16"/>
	<rect x="320" y="400" style="fill:#5F6465;" width="16" height="16"/>
</g>
<path style="fill:#FFFFFF;" d="M400,192v32c-8,56-32,72-32,72c-16,8-40,8-40,8s-24,0-40-8c0,0-24-16-32-72v-32l32-16l80,32L400,192z
	"/>
<path style="fill:#FFC469;" d="M256,192c0-48.8,23.2-72,72-72s72,23.2,72,72l-32,16l-40-16l-40-16L256,192z"/>
<g>
	<path style="fill:#5F6465;" d="M328,312c-0.8,0-26.4,0-43.2-8.8l-0.8-0.8c-0.8-0.8-27.2-18.4-35.2-77.6V224v-32h16v31.2
		c7.2,47.2,25.6,64,28,65.6C306.4,296,328,296,328,296s21.6,0,36-7.2c2.4-2.4,21.6-18.4,28-65.6V192h16v32.8
		c-8.8,59.2-34.4,76.8-35.2,77.6l-0.8,0.8C354.4,312,328.8,312,328,312z"/>
	<path style="fill:#5F6465;" d="M408,192h-16c0-44-20-64-64-64s-64,20-64,64h-16c0-52.8,27.2-80,80-80S408,139.2,408,192z"/>
	<polygon style="fill:#5F6465;" points="368,216.8 288,184.8 259.2,199.2 252.8,184.8 288,167.2 368,199.2 396.8,184.8 403.2,199.2 
			"/>
	<rect x="168" y="328" style="fill:#5F6465;" width="16" height="16"/>
	<rect x="40" y="200" style="fill:#5F6465;" width="16" height="16"/>
	<rect x="168" y="72" style="fill:#5F6465;" width="16" height="16"/>
</g>
<g>
</g>
<g>
</g>
<g>
</g>
<g>
</g>
<g>
</g>
<g>
</g>
<g>
</g>
<g>
</g>
<g>
</g>
<g>
</g>
<g>
</g>
<g>
</g>
<g>
</g>
<g>
</g>
<g>
</g>
</svg>
