<?xml version="1.0" encoding="iso-8859-1"?>
<!-- Generator: Adobe Illustrator 19.0.0, SVG Export Plug-In . SVG Version: 6.00 Build 0)  -->
<svg version="1.1" id="Layer_1" xmlns="http://www.w3.org/2000/svg" xmlns:xlink="http://www.w3.org/1999/xlink" x="0px" y="0px"
	 viewBox="0 0 512 512" style="enable-background:new 0 0 512 512;" xml:space="preserve">
<rect y="395.365" style="fill:#E6E5E5;" width="146.56" height="96.492"/>
<g>
	<rect x="22.943" y="425.522" style="fill:#242D3C;" width="100.685" height="7.229"/>
	<rect x="22.943" y="439.986" style="fill:#242D3C;" width="100.685" height="7.258"/>
	<rect x="22.943" y="454.475" style="fill:#242D3C;" width="50.322" height="7.235"/>
</g>
<rect x="182.733" y="395.365" style="fill:#E6E5E5;" width="146.534" height="96.492"/>
<g>
	<rect x="205.696" y="425.522" style="fill:#242D3C;" width="100.608" height="7.229"/>
	<rect x="205.696" y="439.986" style="fill:#242D3C;" width="100.608" height="7.258"/>
	<rect x="205.696" y="454.475" style="fill:#242D3C;" width="50.322" height="7.235"/>
</g>
<rect x="365.44" y="395.365" style="fill:#E6E5E5;" width="146.56" height="96.492"/>
<g>
	<rect x="388.378" y="425.522" style="fill:#242D3C;" width="100.685" height="7.229"/>
	<rect x="388.378" y="439.986" style="fill:#242D3C;" width="100.685" height="7.258"/>
	<rect x="388.378" y="454.475" style="fill:#242D3C;" width="50.348" height="7.235"/>
	<polygon style="fill:#242D3C;" points="444.052,395.36 433.421,395.36 433.421,357.754 78.602,357.754 78.602,395.36 
		67.971,395.36 67.971,347.13 444.052,347.13 	"/>
	<rect x="250.675" y="309.528" style="fill:#242D3C;" width="10.627" height="85.837"/>
</g>
<rect x="67.971" y="49.125" style="fill:#E6E5E5;" width="376.09" height="260.403"/>
<g>
	<rect x="175.795" y="156.952" style="fill:#242D3C;" width="7.875" height="7.88"/>
	<path style="fill:#242D3C;" d="M167.9,164.835h-7.882v-7.88h7.882V164.835z M152.133,164.835h-7.885v-7.88h7.885
		C152.133,156.955,152.133,164.835,152.133,164.835z M136.364,164.835h-7.885v-7.88h7.885V164.835z M120.596,164.835h-7.887v-7.88
		h7.887V164.835z"/>
	<rect x="96.95" y="156.952" style="fill:#242D3C;" width="7.877" height="7.88"/>
	<path style="fill:#242D3C;" d="M104.827,149.07H96.95v-7.885h7.877V149.07z M104.827,133.303H96.95v-7.89h7.877V133.303z
		 M104.827,117.533H96.95v-7.887h7.877V117.533z M104.827,101.761H96.95v-7.885h7.877V101.761z"/>
	<rect x="96.95" y="78.115" style="fill:#242D3C;" width="7.877" height="7.875"/>
	<path style="fill:#242D3C;" d="M167.9,85.989h-7.882v-7.875h7.882V85.989z M152.133,85.989h-7.885v-7.875h7.885
		C152.133,78.115,152.133,85.989,152.133,85.989z M136.364,85.989h-7.885v-7.875h7.885V85.989z M120.596,85.989h-7.887v-7.875h7.887
		V85.989z"/>
	<rect x="175.795" y="78.115" style="fill:#242D3C;" width="7.875" height="7.875"/>
	<path style="fill:#242D3C;" d="M183.662,149.07h-7.875v-7.887h7.875V149.07z M183.662,133.303h-7.875v-7.89h7.875V133.303z
		 M183.662,117.533h-7.875v-7.887h7.875V117.533z M183.662,101.761h-7.875v-7.885h7.875V101.761z"/>
	<rect x="291.482" y="156.952" style="fill:#242D3C;" width="7.877" height="7.88"/>
	<path style="fill:#242D3C;" d="M283.604,164.835h-7.882v-7.88h7.882V164.835z M267.832,164.835h-7.88v-7.88h7.88V164.835z
		 M252.068,164.835h-7.89v-7.88h7.89V164.835z M236.293,164.835h-7.885v-7.88h7.885V164.835z"/>
	<rect x="212.634" y="156.952" style="fill:#242D3C;" width="7.88" height="7.88"/>
	<path style="fill:#242D3C;" d="M220.526,149.07h-7.88v-7.885h7.88V149.07z M220.526,133.303h-7.88v-7.89h7.88V133.303z
		 M220.526,117.533h-7.88v-7.887h7.88V117.533z M220.526,101.761h-7.88v-7.885h7.88V101.761z"/>
	<rect x="212.634" y="78.115" style="fill:#242D3C;" width="7.88" height="7.875"/>
	<path style="fill:#242D3C;" d="M283.604,85.989h-7.882v-7.875h7.882V85.989z M267.832,85.989h-7.88v-7.875h7.88V85.989z
		 M252.068,85.989h-7.89v-7.875h7.89V85.989z M236.293,85.989h-7.885v-7.875h7.885V85.989z"/>
	<rect x="291.482" y="78.115" style="fill:#242D3C;" width="7.877" height="7.875"/>
	<path style="fill:#242D3C;" d="M299.361,149.07h-7.877v-7.887h7.877V149.07z M299.361,133.303h-7.877v-7.89h7.877V133.303z
		 M299.361,117.533h-7.877v-7.887h7.877V117.533z M299.361,101.761h-7.877v-7.885h7.877V101.761z"/>
	<rect x="407.194" y="156.952" style="fill:#242D3C;" width="7.872" height="7.88"/>
	<path style="fill:#242D3C;" d="M399.306,164.835h-7.885v-7.88h7.885V164.835z M383.534,164.835h-7.882v-7.88h7.882V164.835z
		 M367.767,164.835h-7.89v-7.88h7.89V164.835z M351.995,164.835h-7.88v-7.88h7.88V164.835z"/>
	<rect x="328.346" y="156.952" style="fill:#242D3C;" width="7.885" height="7.88"/>
	<path style="fill:#242D3C;" d="M336.233,149.07h-7.885v-7.885h7.885V149.07z M336.233,133.303h-7.885v-7.89h7.885V133.303z
		 M336.233,117.533h-7.885v-7.887h7.885V117.533z M336.233,101.761h-7.885v-7.885h7.885V101.761z"/>
	<rect x="328.346" y="78.115" style="fill:#242D3C;" width="7.885" height="7.875"/>
	<path style="fill:#242D3C;" d="M399.306,85.989h-7.885v-7.875h7.885V85.989z M383.534,85.989h-7.882v-7.875h7.882V85.989z
		 M367.767,85.989h-7.89v-7.875h7.89V85.989z M351.995,85.989h-7.88v-7.875h7.88V85.989z"/>
	<rect x="407.194" y="78.115" style="fill:#242D3C;" width="7.872" height="7.875"/>
	<path style="fill:#242D3C;" d="M415.068,149.07h-7.872v-7.887h7.872V149.07z M415.068,133.303h-7.872v-7.89h7.872V133.303z
		 M415.068,117.533h-7.872v-7.887h7.872V117.533z M415.068,101.761h-7.872v-7.885h7.872V101.761z"/>
	<rect x="67.971" y="20.143" style="fill:#242D3C;" width="376.09" height="28.987"/>
</g>
<rect x="96.95" y="193.816" style="fill:#F15424;" width="318.131" height="86.72"/>
<g>
	<rect x="118.63" y="99.813" style="fill:#CCCBCA;" width="43.328" height="43.32"/>
	<rect x="234.342" y="99.813" style="fill:#CCCBCA;" width="43.328" height="43.32"/>
	<rect x="350.054" y="99.813" style="fill:#CCCBCA;" width="43.323" height="43.32"/>
</g>
<g>
</g>
<g>
</g>
<g>
</g>
<g>
</g>
<g>
</g>
<g>
</g>
<g>
</g>
<g>
</g>
<g>
</g>
<g>
</g>
<g>
</g>
<g>
</g>
<g>
</g>
<g>
</g>
<g>
</g>
</svg>
